<svg width="32" height="32" viewBox="0 0 32 32" fill="none" xmlns="http://www.w3.org/2000/svg">
<rect width="32" height="32" rx="8" fill="#8337FF" fill-opacity="0.08"/>
<path d="M8 13.3333V10C8 8.89543 8.89543 8 10 8H13.3333C14.4379 8 15.3333 8.89543 15.3333 10V13.3333C15.3333 14.4379 14.4379 15.3333 13.3333 15.3333H10C8.89543 15.3333 8 14.4379 8 13.3333Z" fill="url(#paint0_linear)"/>
<path d="M16.6667 13.3333V10C16.6667 8.89543 17.5621 8 18.6667 8H22C23.1046 8 24 8.89543 24 10V13.3333C24 14.4379 23.1046 15.3333 22 15.3333H18.6667C17.5621 15.3333 16.6667 14.4379 16.6667 13.3333Z" fill="url(#paint1_linear)"/>
<path d="M16.6667 22V18.6667C16.6667 17.5621 17.5621 16.6667 18.6667 16.6667H22C23.1046 16.6667 24 17.5621 24 18.6667V22C24 23.1046 23.1046 24 22 24H18.6667C17.5621 24 16.6667 23.1046 16.6667 22Z" fill="url(#paint2_linear)"/>
<path d="M8 22V18.6667C8 17.5621 8.89543 16.6667 10 16.6667H13.3333C14.4379 16.6667 15.3333 17.5621 15.3333 18.6667V22C15.3333 23.1046 14.4379 24 13.3333 24H10C8.89543 24 8 23.1046 8 22Z" fill="url(#paint3_linear)"/>
<defs>
<linearGradient id="paint0_linear" x1="8" y1="8.87273" x2="24.356" y2="9.26803" gradientUnits="userSpaceOnUse">
<stop stop-color="#8F4AFF"/>
<stop offset="1" stop-color="#5E09E9"/>
</linearGradient>
<linearGradient id="paint1_linear" x1="8" y1="8.87273" x2="24.356" y2="9.26803" gradientUnits="userSpaceOnUse">
<stop stop-color="#8F4AFF"/>
<stop offset="1" stop-color="#5E09E9"/>
</linearGradient>
<linearGradient id="paint2_linear" x1="8" y1="8.87273" x2="24.356" y2="9.26803" gradientUnits="userSpaceOnUse">
<stop stop-color="#8F4AFF"/>
<stop offset="1" stop-color="#5E09E9"/>
</linearGradient>
<linearGradient id="paint3_linear" x1="8" y1="8.87273" x2="24.356" y2="9.26803" gradientUnits="userSpaceOnUse">
<stop stop-color="#8F4AFF"/>
<stop offset="1" stop-color="#5E09E9"/>
</linearGradient>
</defs>
</svg>
