<svg width="32" height="32" viewBox="0 0 32 32" fill="none" xmlns="http://www.w3.org/2000/svg">
<rect width="32" height="32" rx="8" fill="#050530" fill-opacity="0.04"/>
<path d="M8 13.3333V10C8 8.89543 8.89543 8 10 8H13.3333C14.4379 8 15.3333 8.89543 15.3333 10V13.3333C15.3333 14.4379 14.4379 15.3333 13.3333 15.3333H10C8.89543 15.3333 8 14.4379 8 13.3333Z" fill="#9494AE"/>
<path d="M16.6667 22V18.6667C16.6667 17.5621 17.5621 16.6667 18.6667 16.6667H22C23.1046 16.6667 24 17.5621 24 18.6667V22C24 23.1046 23.1046 24 22 24H18.6667C17.5621 24 16.6667 23.1046 16.6667 22Z" fill="#9494AE"/>
<rect x="16.6899" y="8" width="7.3" height="7.35" rx="2" fill="#D7D7E1"/>
<rect x="8" y="16.68" width="7.3" height="7.35" rx="2" fill="#D7D7E1"/>
</svg>
