<svg width="16" height="16" viewBox="0 0 16 16" fill="none" xmlns="http://www.w3.org/2000/svg">
<path d="M7.75 0.25C3.60685 0.25 0.25 3.60685 0.25 7.75C0.25 11.8931 3.60685 15.25 7.75 15.25C11.8931 15.25 15.25 11.8931 15.25 7.75C15.25 3.60685 11.8931 0.25 7.75 0.25ZM6.87298 4.60484C6.57056 4.33266 6.57056 3.84879 6.84274 3.57661L7.1754 3.24395C7.47782 2.94153 7.93145 2.94153 8.20363 3.24395L12.2258 7.26613C12.498 7.53831 12.498 7.99194 12.2258 8.26411L8.20363 12.2863C7.93145 12.5585 7.47782 12.5585 7.1754 12.2863L6.84274 11.9536C6.57056 11.6815 6.57056 11.1976 6.87298 10.9254L9.14113 8.71774H3.6371C3.21371 8.71774 2.91129 8.41532 2.91129 7.99194V7.50806C2.91129 7.11492 3.21371 6.78226 3.6371 6.78226H9.14113L6.87298 4.60484Z" fill="#8337FF"/>
</svg>
