<svg width="32" height="32" viewBox="0 0 32 32" fill="none" xmlns="http://www.w3.org/2000/svg">
<rect width="32" height="32" rx="8" fill="#050530" fill-opacity="0.04"/>
<path d="M7 13C7 10.9289 8.67893 9.25 10.75 9.25H21.25C23.3211 9.25 25 10.9289 25 13V21.25C25 23.3211 23.3211 25 21.25 25H10.75C8.67893 25 7 23.3211 7 21.25V13Z" fill="#D7D7E1"/>
<path fill-rule="evenodd" clip-rule="evenodd" d="M14.5 8.5C14.0858 8.5 13.75 8.83579 13.75 9.25H18.25C18.25 8.83579 17.9142 8.5 17.5 8.5H14.5ZM14.5 7C13.2574 7 12.25 8.00736 12.25 9.25H10.75C8.67893 9.25 7 10.9289 7 13V17.05L11.9475 18.5633C12.818 18.8296 13.764 18.5665 14.3721 17.889C15.26 16.8995 16.7932 16.8484 17.7452 17.7765L17.8991 17.9266C18.576 18.5866 19.5631 18.817 20.4623 18.5248L25 17.05V13C25 10.9289 23.3211 9.25 21.25 9.25H19.75C19.75 8.00736 18.7426 7 17.5 7H14.5ZM16 18.25C15.5858 18.25 15.25 18.5858 15.25 19V19.75C15.25 20.1642 15.5858 20.5 16 20.5C16.4142 20.5 16.75 20.1642 16.75 19.75V19C16.75 18.5858 16.4142 18.25 16 18.25Z" fill="#9494AE"/>
</svg>
