<svg width="32" height="32" viewBox="0 0 32 32" fill="none" xmlns="http://www.w3.org/2000/svg">
<rect width="32" height="32" rx="8" fill="#5E09E9" fill-opacity="0.08"/>
<path d="M7 13C7 10.9289 8.67893 9.25 10.75 9.25H21.25C23.3211 9.25 25 10.9289 25 13V21.25C25 23.3211 23.3211 25 21.25 25H10.75C8.67893 25 7 23.3211 7 21.25V13Z" fill="#5E09E9" fill-opacity="0.24"/>
<path fill-rule="evenodd" clip-rule="evenodd" d="M14.5 7.5C14.0858 7.5 13.75 7.83579 13.75 8.25V9.25H18.25V8.25C18.25 7.83579 17.9142 7.5 17.5 7.5H14.5ZM12.25 8.25V9.25H10.75C8.67893 9.25 7 10.9289 7 13V17.05L11.9475 18.5633C12.818 18.8296 13.764 18.5665 14.3721 17.889C15.26 16.8995 16.7932 16.8484 17.7452 17.7765L17.8991 17.9266C18.576 18.5866 19.5631 18.817 20.4623 18.5248L25 17.05V13C25 10.9289 23.3211 9.25 21.25 9.25H19.75V8.25C19.75 7.00736 18.7426 6 17.5 6H14.5C13.2574 6 12.25 7.00736 12.25 8.25ZM16 18.25C15.5858 18.25 15.25 18.5858 15.25 19V19.75C15.25 20.1642 15.5858 20.5 16 20.5C16.4142 20.5 16.75 20.1642 16.75 19.75V19C16.75 18.5858 16.4142 18.25 16 18.25Z" fill="url(#paint0_linear)"/>
<defs>
<linearGradient id="paint0_linear" x1="7" y1="6.79091" x2="25.3947" y2="7.34279" gradientUnits="userSpaceOnUse">
<stop stop-color="#8F4AFF"/>
<stop offset="1" stop-color="#5E09E9"/>
</linearGradient>
</defs>
</svg>
