<svg width="32" height="32" viewBox="0 0 32 32" fill="none" xmlns="http://www.w3.org/2000/svg">
<rect width="32" height="32" rx="8" fill="#5E09E9" fill-opacity="0.08"/>
<path d="M24.5631 11.5307C25.1126 13.0003 23.9585 14.4062 22.5194 15.031C12.9493 19.186 23.0828 24.0028 16 24.9443C11.3448 25.5631 7 20.9273 7 15.9721C7 11.017 11.0294 7 16 7C20.0011 7 23.3924 8.40004 24.5631 11.5307Z" fill="#5E09E9" fill-opacity="0.24"/>
<path fill-rule="evenodd" clip-rule="evenodd" d="M20.1838 13.3034C21.6057 10.45 22.7112 8.23144 19.4476 7.40072C18.3857 7.13044 17.2213 7 16 7C11.0294 7 7 11.017 7 15.9721C7 20.9273 11.3448 25.5631 16 24.9443C19.2098 24.5177 18.8838 23.2951 18.4583 21.699L18.4583 21.699C18.2964 21.0919 18.1201 20.4308 18.1185 19.7388C18.1132 17.4585 19.221 15.2354 20.1838 13.3034L20.1838 13.3034ZM17.5518 10.7126C18.2374 10.7126 18.7932 10.1585 18.7932 9.47506C18.7932 8.79159 18.2374 8.23752 17.5518 8.23752C16.8662 8.23752 16.3104 8.79159 16.3104 9.47506C16.3104 10.1585 16.8662 10.7126 17.5518 10.7126ZM15.0691 10.0938C15.0691 10.7773 14.5134 11.3314 13.8278 11.3314C13.1422 11.3314 12.5864 10.7773 12.5864 10.0938C12.5864 9.41035 13.1422 8.85629 13.8278 8.85629C14.5134 8.85629 15.0691 9.41035 15.0691 10.0938ZM10.724 13.8065C11.4096 13.8065 11.9653 13.2524 11.9653 12.5689C11.9653 11.8855 11.4096 11.3314 10.724 11.3314C10.0384 11.3314 9.48258 11.8855 9.48258 12.5689C9.48258 13.2524 10.0384 13.8065 10.724 13.8065ZM10.7242 16.2816C10.7242 16.965 10.1684 17.5191 9.48282 17.5191C8.79722 17.5191 8.24144 16.965 8.24144 16.2816C8.24144 15.5981 8.79722 15.044 9.48282 15.044C10.1684 15.044 10.7242 15.5981 10.7242 16.2816ZM10.724 21.2317C11.4096 21.2317 11.9653 20.6776 11.9653 19.9941C11.9653 19.3106 11.4096 18.7566 10.724 18.7566C10.0384 18.7566 9.48258 19.3106 9.48258 19.9941C9.48258 20.6776 10.0384 21.2317 10.724 21.2317Z" fill="url(#paint0_linear)"/>
<defs>
<linearGradient id="paint0_linear" x1="7" y1="7.98182" x2="21.9028" y2="8.27347" gradientUnits="userSpaceOnUse">
<stop stop-color="#8F4AFF"/>
<stop offset="1" stop-color="#5E09E9"/>
</linearGradient>
</defs>
</svg>
