<svg width="32" height="33" viewBox="0 0 32 33" fill="none" xmlns="http://www.w3.org/2000/svg">
<path d="M16 0.5C7.16129 0.5 0 7.66129 0 16.5C0 25.3387 7.16129 32.5 16 32.5C24.8387 32.5 32 25.3387 32 16.5C32 7.66129 24.8387 0.5 16 0.5ZM16 6.69355C19.0968 6.69355 21.6774 9.27419 21.6774 12.371C21.6774 15.5323 19.0968 18.0484 16 18.0484C12.8387 18.0484 10.3226 15.5323 10.3226 12.371C10.3226 9.27419 12.8387 6.69355 16 6.69355ZM16 28.8871C12.1935 28.8871 8.77419 27.2097 6.51613 24.5C7.74194 22.2419 10.129 20.629 12.9032 20.629C13.0323 20.629 13.1613 20.6935 13.3548 20.7581C14.1935 21.0161 15.0323 21.1452 16 21.1452C16.9032 21.1452 17.8065 21.0161 18.5806 20.7581C18.7742 20.6935 18.9032 20.629 19.0968 20.629C21.8065 20.629 24.1935 22.2419 25.4194 24.5C23.1613 27.2097 19.7419 28.8871 16 28.8871Z" fill="#B0B0C2"/>
</svg>
