<svg width="15" height="15" viewBox="0 0 15 15" fill="none" xmlns="http://www.w3.org/2000/svg">
<path d="M15 7.5C15 3.3871 11.6129 0 7.5 0C3.35685 0 0 3.3871 0 7.5C0 11.6431 3.35685 15 7.5 15C11.6129 15 15 11.6431 15 7.5ZM6.62298 11.4919C6.44153 11.6734 6.10887 11.6734 5.92742 11.4919L2.78226 8.34677C2.60081 8.16532 2.60081 7.83266 2.78226 7.65121L3.47782 6.98589C3.65927 6.77419 3.96169 6.77419 4.14315 6.98589L6.29032 9.10282L10.8266 4.56653C11.0081 4.35484 11.3105 4.35484 11.4919 4.56653L12.1875 5.23185C12.369 5.41331 12.369 5.74597 12.1875 5.92742L6.62298 11.4919Z" fill="#00D287"/>
</svg>
