<svg width="16" height="12" viewBox="0 0 16 12" fill="none" xmlns="http://www.w3.org/2000/svg">
<path d="M4.68796 6.54888L2.94867 4.7805C2.78832 4.61777 2.59793 4.48867 2.38838 4.4006C2.17882 4.31252 1.95421 4.26719 1.72738 4.26719C1.50055 4.26719 1.27593 4.31252 1.06638 4.4006C0.856826 4.48867 0.666436 4.61777 0.506088 4.7805C0.345645 4.94314 0.218369 5.13624 0.131532 5.34879C0.0446953 5.56133 0 5.78915 0 6.01922C0 6.24929 0.0446953 6.47711 0.131532 6.68965C0.218369 6.9022 0.345645 7.09531 0.506088 7.25794L3.45403 10.248L4.67111 11.4867C4.83146 11.6494 5.02185 11.7785 5.2314 11.8666C5.44096 11.9547 5.66557 12 5.8924 12C6.11923 12 6.34385 11.9547 6.5534 11.8666C6.76295 11.7785 6.95334 11.6494 7.11369 11.4867L8.33498 10.248L15.4943 2.98649C15.6546 2.82421 15.7818 2.63147 15.8686 2.41928C15.9553 2.20709 16 1.97962 16 1.7499C16 1.52018 15.9553 1.29271 15.8686 1.08052C15.7818 0.868332 15.6546 0.675584 15.4943 0.513311C15.3339 0.350578 15.1435 0.221485 14.934 0.133409C14.7244 0.0453332 14.4998 0 14.273 0C14.0461 0 13.8215 0.0453332 13.612 0.133409C13.4024 0.221485 13.212 0.350578 13.0517 0.513311L7.13054 6.54888C6.97019 6.71162 6.7798 6.84071 6.57025 6.92878C6.36069 7.01686 6.13608 7.06219 5.90925 7.06219C5.68241 7.06219 5.4578 7.01686 5.24825 6.92878C5.03869 6.84071 4.8483 6.71162 4.68796 6.54888V6.54888Z" fill="white"/>
</svg>
