<svg width="688" height="126" viewBox="0 0 688 126" fill="none" xmlns="http://www.w3.org/2000/svg">
<mask id="mask0" mask-type="alpha" maskUnits="userSpaceOnUse" x="0" y="0" width="688" height="126">
<rect width="688" height="126" rx="12" fill="url(#paint0_linear)"/>
</mask>
<g mask="url(#mask0)">
<path d="M82.8973 83.8231L82.8464 83.7849L82.7834 83.7757L82.6252 83.7526L82.6073 83.75H82.5891H33.4109H33.3732L33.3372 83.7611L33.0475 83.8505L32.9937 83.8671L32.9521 83.9052C32.8476 84.0012 32.7724 84.1281 32.7523 84.2741L32.75 84.291V84.3081V131.692V131.708L32.7521 131.724C32.7715 131.872 32.8474 132 32.953 132.096L32.9942 132.133L33.0475 132.15L33.3372 132.239L33.3732 132.25H33.4109H82.5891H82.6265L82.6623 132.239L82.954 132.15L83.0083 132.133L83.0501 132.095C83.1551 131.998 83.23 131.87 83.2481 131.722L83.25 131.707V131.692V84.3081V84.2762L83.242 84.2453L83.2112 84.1267L83.1892 84.042L83.1192 83.9895L82.8973 83.8231ZM81.9282 131.134H34.0718V84.8663H81.9282V131.134Z" fill="#E2EAFF" stroke="#E2EAFF" stroke-width="0.5"/>
<path d="M71.0169 97.731L71.0112 97.7254L71.0052 97.7201C70.9818 97.6999 70.9663 97.6852 70.9507 97.6706C70.9462 97.6663 70.9416 97.662 70.9368 97.6575C70.9173 97.6393 70.8868 97.6112 70.8446 97.5866C70.8027 97.5621 70.7608 97.5475 70.7223 97.5361C70.6849 97.5251 70.637 97.5133 70.5788 97.499L70.5192 97.7418L70.5464 97.4932C70.3705 97.474 70.1928 97.5084 70.0369 97.5921C69.881 97.6758 69.754 97.8047 69.6728 97.9619C69.5915 98.1191 69.5598 98.2972 69.5818 98.4729C69.6038 98.6485 69.6784 98.8133 69.7959 98.9456L69.8014 98.9518L69.8073 98.9576L93.8295 122.66C93.9134 122.754 94.019 122.826 94.1371 122.87C94.255 122.914 94.3817 122.928 94.5064 122.912C94.8738 122.888 95.1212 122.631 95.2202 122.346C95.3188 122.062 95.2868 121.708 95.0557 121.45L95.0506 121.444L95.0452 121.439L71.0169 97.731Z" fill="#FDA900" stroke="#FDA900" stroke-width="0.5"/>
<path d="M163.67 40.5346L163.668 40.5275L163.665 40.5206L163.639 40.4579L163.634 40.4439L163.626 40.4307L153.585 22.4079L153.581 22.4011L153.577 22.3946C153.51 22.2903 153.422 22.201 153.319 22.1323C153.216 22.0637 153.1 22.0172 152.978 21.9958C152.856 21.9743 152.731 21.9785 152.61 22.0078C152.49 22.0372 152.377 22.0912 152.278 22.1665L152.272 22.1714L152.266 22.1767L136.368 36.0407L136.361 36.0466L136.355 36.0529C136.244 36.1646 136.165 36.3038 136.126 36.4563C136.087 36.6087 136.089 36.7688 136.133 36.9201C136.176 37.0713 136.259 37.2082 136.373 37.3167C136.487 37.4251 136.628 37.5011 136.782 37.5369L136.79 37.5389L136.799 37.5403L162.732 41.6976L162.74 41.6988L162.747 41.6996C162.895 41.7139 163.043 41.6911 163.179 41.6333C163.315 41.5755 163.434 41.4845 163.526 41.3686C163.618 41.2526 163.679 41.1155 163.704 40.9699C163.73 40.8242 163.718 40.6745 163.67 40.5346ZM152.59 24.1793L161.249 39.7207L138.884 36.1321L152.59 24.1793Z" fill="#FFD600" stroke="#FFD600" stroke-width="0.5"/>
<path d="M213.974 32C219.207 32.0473 224.235 37.5733 222.729 43.0669C221.76 46.5776 217.794 48.7407 214.009 47.7655C209.556 46.616 206.08 41.746 207.218 37.1449C207.936 34.237 210.7 32.0739 213.778 32.003L213.974 32ZM213.884 33.7731C211.677 33.7938 209.529 35.1974 208.922 37.5083C207.705 42.1538 213.119 47.6798 217.955 45.9304C218.703 45.6549 219.374 45.2013 219.913 44.6077C220.451 44.0142 220.84 43.2982 221.048 42.5202C222.11 38.4717 218.317 33.7553 213.884 33.7731Z" fill="#FFCD69"/>
<path fill-rule="evenodd" clip-rule="evenodd" d="M160.329 93.7736C160.289 94.2721 160.289 94.2721 160.289 94.2721L160.288 94.272L160.286 94.2718L160.282 94.2715L160.272 94.2705C160.264 94.2697 160.254 94.2686 160.242 94.267C160.219 94.264 160.188 94.2594 160.151 94.2523C160.079 94.2383 159.979 94.2138 159.87 94.1705C159.664 94.0891 159.34 93.903 159.211 93.5086C159.141 93.2935 159.14 93.0725 159.213 92.8661C159.284 92.6652 159.413 92.5082 159.555 92.3921C159.833 92.1661 160.206 92.0555 160.557 92.0385L160.561 92.0384C163.451 91.9185 166.12 89.9092 166.613 86.8155C166.992 84.4173 166.052 81.8995 164.331 79.9639C162.612 78.0292 160.163 76.7321 157.609 76.7234L157.57 76.7233L157.531 76.7171C157.531 76.7171 157.531 76.7171 157.611 76.2234L157.531 76.7171L157.53 76.7169L157.528 76.7166L157.524 76.716L157.515 76.7142C157.507 76.7129 157.498 76.7111 157.487 76.7088C157.466 76.7043 157.437 76.6977 157.403 76.6884C157.337 76.6703 157.246 76.6407 157.147 76.5936C157.147 76.5937 157.147 76.5936 157.147 76.5936C156.963 76.5058 156.671 76.3177 156.554 75.9527C156.5 75.7854 156.486 75.6076 156.514 75.4345C156.542 75.261 156.611 75.0967 156.715 74.955C156.818 74.8133 156.954 74.6982 157.111 74.619C157.268 74.5399 157.441 74.4992 157.617 74.5L157.638 74.5001L157.709 74.5064C162.583 74.5629 167.14 78.1255 168.518 82.8534C169.526 86.3174 168.534 90.4566 165.475 92.6526L165.47 92.6561C163.963 93.7104 162.168 94.2752 160.328 94.2736L160.329 93.7736ZM157.615 75C157.615 75 157.615 75 157.615 75L157.684 75.0061C157.684 75.0061 157.684 75.0061 157.684 75.0061" fill="white"/>
<rect x="66.0348" y="28.3488" width="16.6456" height="16.6456" rx="3.66139" transform="rotate(27.5 66.0348 28.3488)" stroke="#FFD600" stroke-width="2"/>
<path d="M547.614 103.211C547.689 103.25 547.75 103.31 547.79 103.385L547.814 103.507V186.301L547.719 186.528L547.492 186.623L547.263 186.528L547.169 186.301V103.507L547.263 103.28L547.492 103.185L547.614 103.211Z" fill="#CAC1FF"/>
<path d="M601.145 103.211C601.219 103.25 601.28 103.31 601.32 103.385L601.344 103.507V181.969L601.249 182.198L601.022 182.291L600.794 182.198L600.7 181.969V103.507L600.794 103.28L601.022 103.185L601.145 103.209V103.211Z" fill="#715EE3"/>
<path d="M589.058 44.5142L587.234 51.1666L591.055 50.8896L589.058 44.5142Z" fill="#DE97FF"/>
<path d="M639.905 16.0242L640.079 16.1981L640.103 16.3222V65.8598C640.095 65.9436 640.063 66.0233 640.009 66.0885L639.781 66.1819H601.224L600.997 66.0885C600.943 66.0234 600.91 65.9438 600.902 65.8598V16.3222C600.91 16.2383 600.943 16.1587 600.997 16.0934L601.224 16H639.781L639.905 16.0242ZM601.546 16.6443V65.5376H639.459V16.6443H601.546Z" fill="#E2EAFF"/>
<path d="M632.334 97.7438C632.595 97.8227 632.611 97.8839 632.589 98.1223L625.96 132.11C625.862 132.432 625.285 132.422 625.327 131.986L631.956 97.9983C632.036 97.7341 632.155 97.7277 632.334 97.7438Z" fill="#CAC1FF"/>
<path d="M621.753 81.7856C623.525 88.1224 624.362 97.5712 624.021 100.725L624.032 100.799H610.159L613.863 81.8324L621.756 81.7856H621.753Z" fill="#E2EAFF" fill-opacity="0.38"/>
<path d="M641.391 81.5504C641.683 81.5794 641.733 81.6664 641.714 81.9338L638.009 100.901C637.999 100.977 637.96 101.047 637.9 101.096C637.84 101.144 637.764 101.168 637.687 101.162L605.336 101.121C605.044 101.092 604.994 101.005 605.014 100.738L608.719 81.7695C608.788 81.5359 608.88 81.523 609.041 81.5101L641.391 81.5504V81.5504ZM605.732 100.477L637.427 100.517L641 82.1931L609.307 82.1544C608.115 88.2625 606.923 94.37 605.732 100.477V100.477Z" fill="#CAC1FF"/>
<path d="M557.734 84.5704H543.724V98.059H557.734V84.5704Z" fill="#FFD600"/>
<path d="M567.808 94.4059H543.724V98.0607H567.808V94.4059Z" fill="#FFED91"/>
<mask id="mask1" mask-type="alpha" maskUnits="userSpaceOnUse" x="543" y="94" width="25" height="4">
<path d="M567.884 94.3005H543.8V97.9554H567.884V94.3005Z" fill="#FFF1A7"/>
</mask>
<g mask="url(#mask1)">
<path d="M577.961 80.1125C577.961 80.1125 576.801 80.6312 573.612 83.6417C570.422 86.6523 569.169 87.6944 569.169 87.6944C569.169 87.6944 561.313 84.3376 557.227 81.8361C553.14 79.3345 545.75 74.4716 545.027 73.0799C544.304 71.6882 543.382 68.0511 542.64 67.1474C541.897 66.2438 537.123 63.2091 535.404 61.5967C534.389 60.6379 533.27 59.7941 532.07 59.0807C532.07 59.0807 530.543 59.4689 533.197 63.0738L535.407 66.0795C533.853 67.0073 531.624 71.4949 533.197 73.0799C534.739 74.6327 538.69 76.9296 540.568 76.4915C546.986 86.7618 555.165 95.7918 565.708 103.156C565.987 103.351 566.304 103.487 566.637 103.558C566.971 103.628 567.315 103.631 567.65 103.565C574.362 102.238 580.805 99.6882 586.828 95.2183C583.062 90.4279 580.087 85.3991 577.961 80.1125Z" fill="#FDA900"/>
</g>
<path d="M563.752 94.087C564.063 94.1611 564.123 94.6943 563.702 94.7313H543.729C543.389 94.704 543.337 94.1176 543.729 94.087H563.702H563.752Z" fill="#FDA900"/>
<path d="M543.779 86.5099C543.856 86.5192 543.927 86.5579 543.976 86.6179C544.026 86.6778 544.05 86.7545 544.045 86.8321V98.0205C544.025 98.3571 543.428 98.4876 543.4 98.0205V86.8272C543.402 86.7807 543.413 86.735 543.434 86.6931C543.454 86.6512 543.483 86.6141 543.519 86.5841C543.554 86.5542 543.596 86.5321 543.641 86.5193C543.686 86.5065 543.733 86.5033 543.779 86.5099Z" fill="#FDA900"/>
<path d="M606.006 97.7175L606.18 97.8915L606.204 98.0155V103.507C606.196 103.59 606.164 103.67 606.111 103.735L605.882 103.829H520.084C520.003 103.818 519.927 103.78 519.869 103.722C519.811 103.664 519.773 103.588 519.762 103.507V98.0155C519.77 97.9317 519.802 97.8521 519.856 97.7868L520.084 97.6934H605.882L606.006 97.7175ZM520.407 98.3377V103.184H605.56V98.3377H520.407Z" fill="#CAC1FF"/>
<path d="M573.76 44.9001H518.122L526.3 86.8269H581.938L573.76 44.9001Z" fill="#FFD600"/>
<mask id="mask2" mask-type="alpha" maskUnits="userSpaceOnUse" x="518" y="44" width="65" height="43">
<path d="M573.823 44.9926H518.185L526.363 86.9193H582.001L573.823 44.9926Z" fill="#FFD600"/>
</mask>
<g mask="url(#mask2)">
<path d="M579.241 80.1123C579.241 80.1123 578.082 80.6309 574.892 83.6415C571.703 86.652 570.45 87.6942 570.45 87.6942C570.45 87.6942 562.594 84.3373 558.508 81.8358C554.421 79.3343 547.031 74.4714 546.308 73.0797C545.584 71.6879 544.663 68.0508 543.92 67.1472C543.178 66.2435 538.404 63.2088 536.685 61.5965C535.669 60.6376 534.551 59.7939 533.351 59.0804C533.351 59.0804 531.824 59.4686 534.478 63.0735L536.688 66.0792C535.134 67.007 532.904 71.4947 534.478 73.0797C536.02 74.6324 539.971 76.9294 541.849 76.4913C548.266 86.7615 556.446 95.7915 566.988 103.156C567.268 103.351 567.584 103.487 567.918 103.557C568.252 103.628 568.596 103.63 568.931 103.565C575.643 102.238 582.086 99.688 588.109 95.2181C584.343 90.4277 581.368 85.3988 579.241 80.1123Z" fill="#FDA900"/>
</g>
<path d="M579.982 33.1942H556.009L560.777 57.6441H584.75L579.982 33.1942Z" fill="#FDA900"/>
<path d="M549.494 54.8579C549.684 54.9046 549.639 54.895 549.748 54.99L568.73 73.7184C568.982 74.0003 568.82 74.5238 568.424 74.5448C568.355 74.5545 568.285 74.547 568.22 74.5228C568.155 74.4986 568.097 74.4585 568.051 74.4062L549.07 55.6778C549.004 55.6031 548.962 55.5101 548.949 55.4109C548.937 55.3118 548.955 55.2112 549.001 55.1225C549.046 55.0337 549.118 54.961 549.206 54.9137C549.294 54.8665 549.394 54.847 549.494 54.8579V54.8579Z" fill="#FDA900"/>
<path d="M568.377 49.1391C568.683 49.2116 568.699 49.2503 568.776 49.5241L574.659 79.6874C574.694 79.9757 574.586 80.2335 574.185 80.2624H549.497C549.155 80.2367 549.107 80.1787 549.023 79.8726L543.134 49.7093C543.067 49.1488 543.41 49.1488 543.608 49.1327H568.296L568.377 49.1391ZM544.201 50.1056L549.9 79.296H573.602L567.908 50.0992L544.201 50.1056Z" fill="#FDA900"/>
<path d="M537.991 42.4513H506.327L511.093 66.898H542.759L537.991 42.4513V42.4513Z" fill="#FDA900"/>
<path d="M518.707 60.6524C518.776 60.6608 518.841 60.6903 518.892 60.7366C518.944 60.783 518.98 60.8442 518.995 60.9117L520.403 68.1232C520.445 68.4083 520.294 68.4598 520.178 68.4936C520.091 68.5145 519.999 68.5002 519.923 68.4537C519.846 68.4072 519.792 68.3324 519.77 68.2456L518.364 61.0277C518.358 60.9797 518.362 60.9308 518.376 60.8846C518.391 60.8383 518.415 60.7958 518.448 60.76C518.481 60.7243 518.521 60.6961 518.566 60.6775C518.61 60.6589 518.659 60.6503 518.707 60.6524Z" fill="#FDA900"/>
<path d="M534.138 31.9292H502.474L508.917 65.0064H540.583L534.14 31.9292H534.138Z" fill="#0E0061"/>
<path d="M529.735 40.3161C529.817 40.3311 529.894 40.3666 529.96 40.4192C530.025 40.4718 530.076 40.5399 530.108 40.6173C530.14 40.6947 530.152 40.7789 530.143 40.8622C530.134 40.9455 530.104 41.0253 530.057 41.0941L517.217 57.3919C517.157 57.4579 517.081 57.5067 516.996 57.5332C516.911 57.5598 516.82 57.5632 516.733 57.543C516.646 57.5228 516.566 57.4798 516.502 57.4184C516.437 57.357 516.39 57.2795 516.365 57.1938L512.91 40.8928C512.9 40.8229 512.904 40.7517 512.923 40.6837C512.942 40.6156 512.975 40.5522 513.019 40.4974C513.064 40.4426 513.119 40.3976 513.182 40.3653C513.244 40.333 513.313 40.3141 513.384 40.3097H529.681L529.735 40.3161ZM513.98 41.2826L517.096 55.9873L528.684 41.2826H513.98Z" fill="#FFD600"/>
<path d="M521.445 74.5111C521.526 74.5357 521.597 74.5839 521.65 74.6496L521.698 74.7656L523.987 86.5049H579.361L579.588 86.5983L579.683 86.8271C579.674 86.9106 579.641 86.9897 579.588 87.0542L579.361 87.1492H523.721C523.649 87.1401 523.58 87.1108 523.523 87.0647C523.466 87.0186 523.423 86.9575 523.399 86.8883L521.067 74.888L521.117 74.6464L521.321 74.5111H521.445Z" fill="#FDA900"/>
<path d="M577.864 76.2861C577.864 76.2861 576.795 76.7693 573.837 79.543C570.88 82.3168 569.736 83.2849 569.736 83.2849C569.736 83.2849 562.488 80.1857 558.716 77.8775C554.943 75.5693 548.121 71.0784 547.455 69.7946C546.788 68.5109 545.936 65.1524 545.251 64.318C544.567 63.4836 540.158 60.6841 538.573 59.1958C537.635 58.3106 536.603 57.5316 535.495 56.873C535.495 56.873 534.085 57.2322 536.532 60.5585L538.573 63.3322C537.138 64.1908 535.079 68.3256 536.532 69.7946C537.954 71.2282 541.601 73.348 543.336 72.9437C549.244 82.4005 556.771 90.7169 566.47 97.5063C566.751 97.7023 567.069 97.8393 567.405 97.9094C567.741 97.9794 568.087 97.9809 568.424 97.9139C574.588 96.6832 580.504 94.3331 586.037 90.2273C582.569 85.8041 579.821 81.1635 577.861 76.2828L577.864 76.2861Z" fill="#F0B6FF"/>
<path d="M577.938 76.3296C577.706 78.1418 581.311 91.8361 582.574 92.7563C582.801 92.9214 591.156 86.5774 589.874 84.9713C588.024 82.6538 581.031 78.9349 579.21 76.5907" fill="#DE97FF"/>
<path d="M602.123 51.0681C602.619 53.742 603.587 56.2065 605.183 58.3923L596.676 61.6863C595.813 59.0595 595.377 56.3107 595.388 53.5455L602.123 51.0681Z" fill="#F0B6FF"/>
<path d="M597.74 54.942C597.609 56.6527 596.934 58.2151 596.129 59.7389L593.987 54.2478L597.745 54.942H597.74Z" fill="#DE97FF"/>
<path d="M599.911 35.4311C604.31 36.6376 606.676 42.0224 605.186 47.4458C603.696 52.8693 598.919 56.2954 594.52 55.0889C590.121 53.8825 587.754 48.4993 589.244 43.0742C590.734 37.6491 595.512 34.2246 599.911 35.4311V35.4311Z" fill="#F0B6FF"/>
<path d="M605.591 44.9202C605.549 45.7754 605.413 46.6234 605.186 47.4491C604.834 48.7092 604.324 49.9198 603.669 51.0524C603.213 51.8277 602.478 52.3996 601.614 52.6513C600.75 52.9031 599.823 52.8157 599.022 52.407C598.983 52.3919 598.944 52.3742 598.907 52.3539V52.3539C598.545 52.1744 598.228 51.9141 597.982 51.5929C597.735 51.2718 597.566 50.8984 597.487 50.5015C597.165 48.939 596.681 46.4939 596.681 46.4939L605.592 44.9202H605.591Z" fill="url(#paint1_linear)"/>
<path d="M605.713 47.043C605.734 47.0443 605.755 47.0499 605.774 47.0592C605.793 47.0686 605.81 47.0816 605.824 47.0976C605.838 47.1135 605.848 47.132 605.855 47.1521C605.862 47.1721 605.865 47.1934 605.863 47.2145C605.862 47.2357 605.857 47.2563 605.847 47.2754C605.838 47.2944 605.825 47.3114 605.809 47.3254C605.793 47.3393 605.774 47.35 605.754 47.3569C605.734 47.3637 605.713 47.3665 605.692 47.3651H597.928C597.756 47.3538 597.685 47.0607 597.928 47.043H605.713Z" fill="#B6CAFF"/>
<path d="M605.278 48.8101C605.321 48.813 605.361 48.8329 605.389 48.8652C605.417 48.8975 605.431 48.9397 605.428 48.9824C605.425 49.0251 605.405 49.0649 605.373 49.093C605.34 49.1211 605.298 49.1352 605.255 49.1322H596.345C596.184 49.1193 596.132 48.8246 596.345 48.8101H605.278Z" fill="#B6CAFF"/>
<path d="M604.13 50.5575C604.172 50.5603 604.212 50.5799 604.24 50.6121C604.269 50.6443 604.283 50.6863 604.28 50.729C604.277 50.7718 604.258 50.8116 604.226 50.8399C604.193 50.8681 604.151 50.8824 604.109 50.8796H596.345C596.023 50.8571 596.184 50.5672 596.345 50.5575H604.13Z" fill="#B6CAFF"/>
<path d="M596.466 45.5093C594.33 45.6833 591.649 43.5361 591.024 40.1019C590.269 39.5494 589.689 39.6493 588.903 39.1612C585.63 37.1284 586.071 28.7283 593.946 32.6843C595.424 33.4469 596.95 34.1119 598.514 34.6752C601.053 35.5644 603.682 35.8479 606.306 36.2119C615.39 37.4764 608.342 50.7089 596.466 45.5093" fill="#0E0061"/>
<path d="M599.234 44.4372C599.11 44.0002 598.817 43.6305 598.42 43.4091C598.024 43.1878 597.555 43.1329 597.118 43.2565L596.986 43.2935C596.564 43.4132 596.207 43.6954 595.994 44.0781C595.78 44.4608 595.727 44.9127 595.847 45.3344L596.718 48.4077L597.074 48.3079C597.873 48.0809 598.549 47.5464 598.953 46.8215C599.358 46.0967 599.459 45.2409 599.233 44.442V44.442L599.234 44.4372Z" fill="#DE97FF"/>
<path d="M610.246 129.047C603.363 137.182 594.882 143.675 583.599 147.288C577.829 165.99 565.856 180.147 553.692 194.081C552.694 195.223 547.442 193.045 548.043 191.283L564.978 141.671L603.274 117.284L610.246 129.047Z" fill="#0E0061"/>
<path d="M550.061 138.675C549.456 139.415 549.096 140.325 549.028 141.278C548.96 142.232 549.189 143.183 549.682 144.001C560.416 161.667 574.11 174.767 588.17 187.304C590.485 189.367 595.741 184.243 594.412 181.466C588.415 168.933 581.801 155.694 573.251 144.874C584.535 142.188 595.783 135.79 607.029 129.14L595.391 111.306L582.945 112.488C569.598 119.402 558.696 128.174 550.061 138.675V138.675Z" fill="#D22EED"/>
<path d="M582.949 112.489C586.131 113.386 589 115.043 591.612 117.321C592.566 118.148 593.287 119.209 593.706 120.399C594.284 122.01 595.169 124.518 595.892 126.571C596.681 128.808 598.281 130.666 600.375 131.779L602.361 132.834L607.032 129.145L598.933 111.311L582.949 112.493V112.489Z" fill="#0E0061" fill-opacity="0.6"/>
<path d="M577.17 74.5936C579.415 81.1237 583.114 87.1109 587.756 92.4216L589.061 91.6307C587.933 96.9463 587.434 104.957 585.114 107.304C583.948 108.483 583.46 110.032 582.949 111.567C582.7 111.873 582.73 112.181 582.949 112.489C582.949 112.489 589.674 113.602 593.985 117.289C596.96 119.834 600.189 128.269 605.605 130.175L610.513 131.906C611.964 132.418 613.553 132.381 614.979 131.803C616.406 131.224 617.571 130.144 618.256 128.765C619.751 125.744 621.179 121.612 620.812 117.285C620.437 112.862 620.812 108.822 620.812 100.722C620.812 95.2743 619.673 79.078 618.261 74.5904C616.89 70.2413 612.312 62.8463 604.801 57.8384C604.801 57.8384 599.047 58.407 595.396 60.9246C591.744 63.4422 577.17 74.5888 577.17 74.5888V74.5936Z" fill="white"/>
<path d="M589.061 91.632L595.109 88.6183C592.182 97.753 590.008 107.418 581.938 113.055L589.061 91.632Z" fill="#E2EAFF"/>
<path d="M577.17 31.1395H553.197L557.965 55.5862H581.938L577.17 31.1395Z" fill="white"/>
<path d="M532.47 103.21C532.544 103.249 532.605 103.31 532.644 103.384L532.669 103.507V204.547L532.644 204.67C532.605 204.744 532.544 204.806 532.47 204.845H532.223L532.049 204.67L532.025 204.547V103.507L532.049 103.384C532.089 103.31 532.149 103.25 532.223 103.21C532.305 103.194 532.388 103.194 532.47 103.21V103.21Z" fill="#CAC1FF"/>
<path d="M597.728 86.8612C597.795 86.8712 597.857 86.9013 597.906 86.9475C597.956 86.9936 597.99 87.0537 598.004 87.1197C598.018 87.1857 598.012 87.2544 597.986 87.3167C597.96 87.379 597.916 87.432 597.859 87.4685L587.914 92.7067C587.603 92.8485 587.212 92.3846 587.614 92.1365L597.567 86.8983C597.616 86.8712 597.672 86.8584 597.728 86.8612V86.8612Z" fill="#E2EAFF"/>
<path d="M597.123 85.6899C597.475 85.7254 597.396 86.2714 597.693 86.5646C598.07 86.9383 598.669 86.9625 599.159 86.8674C599.256 86.8557 599.354 86.8817 599.433 86.9399C599.477 86.9846 599.507 87.0408 599.521 87.1021C599.535 87.1634 599.531 87.2274 599.511 87.2867C599.49 87.346 599.453 87.3983 599.404 87.4375C599.354 87.4767 599.295 87.5013 599.233 87.5085C598.197 87.6905 596.942 87.3297 596.778 86.0588C596.778 86.0588 596.778 85.6803 597.123 85.6964V85.6899Z" fill="#E2EAFF"/>
<path d="M597.174 44.192C597.229 44.1984 597.281 44.2179 597.327 44.2487C597.372 44.2795 597.41 44.3208 597.436 44.3691C597.462 44.4175 597.476 44.4714 597.477 44.5263C597.478 44.5812 597.466 44.6356 597.442 44.6849C597.358 44.907 597.344 45.1493 597.402 45.3795C597.459 45.6097 597.586 45.8169 597.764 45.9735C597.804 46.0161 597.835 46.0669 597.854 46.1226C597.873 46.1782 597.879 46.2372 597.873 46.2957C597.82 46.547 597.496 46.6372 597.213 46.3553C596.976 46.0977 596.816 45.7785 596.752 45.4343C596.688 45.0901 596.723 44.7349 596.852 44.4095C596.872 44.3411 596.915 44.2817 596.974 44.2415C597.032 44.2012 597.103 44.1826 597.174 44.1888V44.192Z" fill="#0E0061"/>
<path d="M591.749 51.9528C592.73 51.9528 593.526 51.1573 593.526 50.1761C593.526 49.1949 592.73 48.3994 591.749 48.3994C590.768 48.3994 589.973 49.1949 589.973 50.1761C589.973 51.1573 590.768 51.9528 591.749 51.9528Z" fill="#DE97FF"/>
<path d="M536.661 89.3767H525.993V92.6772C525.993 94.0918 526.555 95.4485 527.555 96.4489C528.555 97.4494 529.911 98.0116 531.326 98.012V98.012C532.741 98.012 534.098 97.45 535.098 96.4495C536.099 95.449 536.661 94.0921 536.661 92.6772V89.3767Z" fill="#D3A4FF"/>
<path d="M536.704 88.8942C536.823 88.9103 536.931 88.9676 537.012 89.0559C537.092 89.1443 537.139 89.2581 537.144 89.3774C537.144 91.225 537.371 93.1128 536.778 94.7058C535.933 96.9802 533.544 98.583 531.11 98.4911C528.177 98.3816 525.538 95.8156 525.509 92.7149V89.3774C525.509 89.3774 525.62 88.9119 525.993 88.8942H536.704ZM526.476 89.8606C526.476 91.4585 526.273 93.1031 526.822 94.4803C527.213 95.4078 527.875 96.195 528.723 96.7382C529.57 97.2814 530.562 97.5551 531.567 97.5231C534.003 97.4023 536.169 95.2374 536.177 92.6779V89.8606H526.476Z" fill="#4D0292"/>
<path d="M535.367 91.5389C532.168 94.1242 530.156 88.269 527.286 91.5389V92.9209C527.286 93.4516 527.39 93.9771 527.593 94.4674C527.796 94.9577 528.094 95.4032 528.469 95.7785C528.844 96.1538 529.289 96.4516 529.78 96.6547C530.27 96.8578 530.795 96.9623 531.326 96.9623V96.9623C531.857 96.9626 532.382 96.8582 532.873 96.6551C533.363 96.4521 533.809 96.1544 534.184 95.7791C534.559 95.4038 534.857 94.9582 535.06 94.4678C535.263 93.9773 535.368 93.4517 535.367 92.9209V91.5389Z" fill="#8106F1"/>
<path d="M538.595 88.8939C539.002 88.9109 539.388 89.0801 539.675 89.368C539.963 89.6559 540.133 90.0415 540.15 90.4483C540.15 91.0088 540.159 91.5758 539.988 92.088C539.77 92.6927 539.373 93.2168 538.85 93.5908C538.327 93.9647 537.703 94.1709 537.06 94.182H536.669C536.614 94.1837 536.559 94.1738 536.508 94.153C536.411 94.1233 536.328 94.0627 536.269 93.9806C536.211 93.8985 536.182 93.7994 536.185 93.6988V89.3771C536.184 89.322 536.194 89.2672 536.214 89.216C536.244 89.1198 536.305 89.0361 536.387 88.9779C536.469 88.9196 536.568 88.8901 536.669 88.8939C537.313 88.8939 537.957 88.8939 538.602 88.8939H538.595ZM537.145 89.8603V93.2091H537.212C537.738 93.1577 538.228 92.9172 538.591 92.5322C538.954 92.1472 539.165 91.6438 539.185 91.1151C539.185 90.5433 539.136 89.8797 538.585 89.87C538.102 89.87 537.619 89.87 537.145 89.87V89.8603Z" fill="#4D0292"/>
<path d="M590.744 29.4562C590.879 29.4562 591.058 29.4562 591.058 29.4562C591.277 29.4755 591.305 29.5641 591.342 29.6479C591.442 29.8734 591.242 30.1037 590.908 30.0957C588.534 30.0506 585.872 31.1733 585.915 34.0936C585.96 36.7304 588.297 38.9726 591.069 39.6556C591.069 39.6556 591.334 39.741 591.355 39.9471C591.379 40.1791 591.194 40.3515 590.833 40.2612C588.842 39.7539 587.022 38.5409 586.029 36.7949C585.105 35.168 584.913 32.9886 586.108 31.3875C587.134 30.0135 589.033 29.4546 590.731 29.4546L590.744 29.4562Z" fill="#0E0061"/>
<path d="M590.673 32.596C591.206 32.596 591.203 32.617 591.28 32.7957C591.38 33.0277 591.25 33.2468 590.771 33.2419C588.548 33.221 585.939 33.5721 585.024 35.1652C584.509 36.0624 585.024 37.2672 585.762 37.9631C587.133 39.2694 589.086 39.8396 591.032 40.128C591.12 40.152 591.198 40.2026 591.256 40.2729C591.406 40.5081 591.203 40.8077 590.739 40.7352C588.684 40.4131 586.58 39.7414 585.171 38.2836C584.269 37.351 583.771 35.9303 584.526 34.74C585.179 33.7139 586.388 33.2049 587.519 32.9262C588.553 32.6876 589.612 32.5767 590.673 32.596V32.596Z" fill="#0E0061"/>
<path d="M529.121 73.5912C529.18 73.5886 529.239 73.6002 529.292 73.6248C529.346 73.6494 529.393 73.6865 529.43 73.7329C530.119 74.4207 530.741 75.1923 530.92 76.1169C531.162 77.3604 530.625 78.6216 529.783 79.572C529.339 80.0987 529.105 80.7703 529.125 81.4586C529.145 82.147 529.417 82.8039 529.891 83.3041L530.374 83.7873C530.427 83.8589 530.459 83.9432 530.469 84.0317C530.478 84.1201 530.463 84.2094 530.427 84.2904C530.39 84.3713 530.332 84.441 530.259 84.4921C530.187 84.5433 530.102 84.5742 530.013 84.5815C529.691 84.5815 529.44 84.2223 529.182 83.9613C527.877 82.6147 527.813 80.2485 529.134 78.8407C530.152 77.7582 530.285 75.9703 529.229 74.8959L528.715 74.3788C528.662 74.3042 528.631 74.2165 528.624 74.1254C528.618 74.0342 528.637 73.943 528.679 73.8618C528.72 73.7805 528.784 73.7123 528.862 73.6646C528.94 73.6169 529.029 73.5915 529.121 73.5912V73.5912Z" fill="#FBF9E8"/>
<path d="M533.347 68.5453C533.4 68.5486 533.452 68.5625 533.5 68.586C533.547 68.6095 533.59 68.6422 533.624 68.6822C534.506 69.5633 535.504 70.359 535.992 71.3947C536.339 72.1598 536.45 73.0109 536.311 73.8395C536.173 74.668 535.79 75.4364 535.213 76.0466C534.367 76.91 533.322 77.6751 532.858 78.6738C532.595 79.2663 532.515 79.9242 532.63 80.5623C532.745 81.2004 533.049 81.7893 533.502 82.2529L535.011 83.7622C535.354 84.144 534.85 84.9155 534.327 84.4452C533.452 83.5705 532.479 82.7909 532.001 81.7745C531.652 81.0098 531.54 80.1582 531.679 79.3293C531.818 78.5003 532.201 77.7318 532.78 77.1226C533.626 76.2592 534.671 75.4941 535.135 74.4938C535.399 73.9017 535.479 73.2439 535.364 72.6058C535.249 71.9678 534.945 71.3791 534.491 70.9163L532.94 69.3651C532.876 69.2912 532.835 69.1999 532.823 69.1028C532.81 69.0057 532.827 68.9071 532.871 68.8195C532.914 68.7318 532.983 68.659 533.067 68.6102C533.152 68.5614 533.25 68.5388 533.347 68.5453V68.5453Z" fill="#FBF9E8"/>
<path d="M560.771 32.5427C563.659 32.5685 566.434 35.5806 565.603 38.5751C565.068 40.4887 562.879 41.6677 560.79 41.1362C558.332 40.5096 556.414 37.855 557.042 35.3471C557.438 33.7621 558.964 32.583 560.663 32.5443L560.771 32.5427ZM560.721 33.5092C559.503 33.5205 558.318 34.2856 557.983 35.5452C557.311 38.0773 560.299 41.0895 562.968 40.1359C563.381 39.9857 563.751 39.7385 564.049 39.4149C564.346 39.0914 564.561 38.7011 564.675 38.2771C565.262 36.0703 563.168 33.4995 560.721 33.5092Z" fill="#FFCD69"/>
<path d="M568.842 37.8469C572.518 37.8823 575.978 40.5771 577.022 44.1563C577.78 46.7641 577.022 49.8471 574.767 51.4659C573.642 52.2523 572.303 52.6736 570.931 52.6724C570.931 52.6724 570.522 52.6402 570.424 52.3406C570.303 51.9701 570.698 51.7172 571.131 51.6963C573.578 51.5948 575.864 49.8906 576.286 47.2377C576.93 43.164 573.083 38.823 568.784 38.8085C568.784 38.8085 568.414 38.7489 568.325 38.4735C568.302 38.4008 568.296 38.3236 568.308 38.2482C568.32 38.1728 568.35 38.1014 568.395 38.0398C568.44 37.9782 568.499 37.9282 568.568 37.8938C568.636 37.8594 568.711 37.8417 568.788 37.842L568.842 37.8469Z" fill="#0E0061"/>
</g>
<defs>
<linearGradient id="paint0_linear" x1="-30" y1="-6.87285" x2="820.633" y2="118.801" gradientUnits="userSpaceOnUse">
<stop stop-color="#04009F"/>
<stop offset="1" stop-color="#04009F"/>
</linearGradient>
<linearGradient id="paint1_linear" x1="600.422" y1="47.8134" x2="600.036" y2="54.0181" gradientUnits="userSpaceOnUse">
<stop stop-color="#0E0061"/>
<stop offset="1" stop-color="#D0A7FF"/>
</linearGradient>
</defs>
</svg>
