<svg width="16" height="16" viewBox="0 0 16 16" fill="none" xmlns="http://www.w3.org/2000/svg">
<path d="M8.01563 4.39063C6.01563 4.39063 4.42188 6.01563 4.42188 7.98438C4.42188 9.98438 6.01563 11.5781 8.01563 11.5781C9.98438 11.5781 11.6094 9.98438 11.6094 7.98438C11.6094 6.01563 9.98438 4.39063 8.01563 4.39063ZM8.01563 10.3281C6.73438 10.3281 5.67188 9.29688 5.67188 7.98438C5.67188 6.70313 6.70313 5.67188 8.01563 5.67188C9.29688 5.67188 10.3281 6.70313 10.3281 7.98438C10.3281 9.29688 9.29688 10.3281 8.01563 10.3281ZM12.5781 4.26563C12.5781 3.79688 12.2031 3.42188 11.7344 3.42188C11.2656 3.42188 10.8906 3.79688 10.8906 4.26563C10.8906 4.73438 11.2656 5.10938 11.7344 5.10938C12.2031 5.10938 12.5781 4.73438 12.5781 4.26563ZM14.9531 5.10938C14.8906 3.98438 14.6406 2.98438 13.8281 2.17188C13.0156 1.35938 12.0156 1.10938 10.8906 1.04688C9.73438 0.984375 6.26563 0.984375 5.10938 1.04688C3.98438 1.10938 3.01563 1.35938 2.17188 2.17188C1.35938 2.98438 1.10938 3.98438 1.04688 5.10938C0.984375 6.26563 0.984375 9.73438 1.04688 10.8906C1.10938 12.0156 1.35938 12.9844 2.17188 13.8281C3.01563 14.6406 3.98438 14.8906 5.10938 14.9531C6.26563 15.0156 9.73438 15.0156 10.8906 14.9531C12.0156 14.8906 13.0156 14.6406 13.8281 13.8281C14.6406 12.9844 14.8906 12.0156 14.9531 10.8906C15.0156 9.73438 15.0156 6.26563 14.9531 5.10938ZM13.4531 12.1094C13.2344 12.7344 12.7344 13.2031 12.1406 13.4531C11.2031 13.8281 9.01563 13.7344 8.01563 13.7344C6.98438 13.7344 4.79688 13.8281 3.89063 13.4531C3.26563 13.2031 2.79688 12.7344 2.54688 12.1094C2.17188 11.2031 2.26563 9.01563 2.26563 7.98438C2.26563 6.98438 2.17188 4.79688 2.54688 3.85938C2.79688 3.26563 3.26563 2.79688 3.89063 2.54688C4.79688 2.17188 6.98438 2.26563 8.01563 2.26563C9.01563 2.26563 11.2031 2.17188 12.1406 2.54688C12.7344 2.76563 13.2031 3.26563 13.4531 3.85938C13.8281 4.79688 13.7344 6.98438 13.7344 7.98438C13.7344 9.01563 13.8281 11.2031 13.4531 12.1094Z" fill="#8337FF"/>
</svg>
