<svg width="159" height="20" viewBox="0 0 159 20" fill="none" xmlns="http://www.w3.org/2000/svg">
<path d="M22.2467 16.8961C22.2815 17.3308 22.4464 17.7655 22.7417 18.2002C23.0369 18.635 23.1845 18.9567 23.1845 19.1653V19.2697C23.1845 19.6001 22.9761 19.7652 22.5593 19.7652H17.3493C16.9325 19.7652 16.7241 19.6001 16.7241 19.2697V19.1653C16.7241 18.974 16.8891 18.661 17.2191 18.2263C17.549 17.7916 17.6967 17.3482 17.6619 16.8961L17.4014 12.2793C17.3319 10.9751 17.1583 10.0535 16.8804 9.51444C16.6025 8.958 16.1771 8.67977 15.604 8.67977C15.083 8.67977 14.6835 8.90583 14.4057 9.35794C14.1278 9.81006 13.9889 10.41 13.9889 11.1577C14.041 11.5229 14.067 11.888 14.067 12.2532V16.8961C14.067 17.3308 14.2233 17.7655 14.5359 18.2002C14.8485 18.635 15.0048 18.9567 15.0048 19.1653V19.2697C15.0048 19.6001 14.7964 19.7652 14.3796 19.7652H9.19566C8.77886 19.7652 8.57046 19.6001 8.57046 19.2697V19.1653C8.57046 18.9567 8.71807 18.635 9.01331 18.2002C9.32591 17.7655 9.48221 17.3308 9.48221 16.8961V11.9402C9.48221 9.76659 8.89174 8.67977 7.71081 8.67977C7.13771 8.67977 6.70354 8.90583 6.40831 9.35794C6.11307 9.81006 5.96546 10.41 5.96546 11.1577V16.8961C5.96546 17.3308 6.15649 17.7655 6.53856 18.2002C6.92062 18.635 7.11166 18.9567 7.11166 19.1653V19.2697C7.11166 19.6001 6.90326 19.7652 6.48646 19.7652H0.859651C0.44285 19.7652 0.234449 19.6001 0.234449 19.2697V19.1653C0.234449 18.9567 0.425483 18.635 0.807551 18.2002C1.18962 17.7655 1.38065 17.3308 1.38065 16.8961V11.7576C1.38065 11.4098 1.25908 11.1142 1.01595 10.8708C0.790184 10.61 0.564417 10.3839 0.33865 10.1926C0.112883 10.0013 0 9.80136 0 9.5927V9.51444C0 9.28839 0.2084 9.07103 0.6252 8.86236L4.5327 7.0626C4.8453 6.92349 5.08844 6.92349 5.26211 7.0626C5.43577 7.20171 5.5226 7.41038 5.5226 7.6886V8.62761C6.32147 7.51471 7.47636 6.95827 8.98726 6.95827C10.915 6.95827 12.339 7.67121 13.2595 9.09711C13.6068 8.41894 14.1191 7.89727 14.7964 7.5321C15.4737 7.14955 16.2465 6.95827 17.1149 6.95827C18.3826 6.95827 19.4594 7.3843 20.3451 8.23636C21.2481 9.08842 21.7691 10.4882 21.9081 12.4358L22.2467 16.8961Z" fill="white"/>
<path d="M36.5201 16.8961C36.5722 17.3134 36.6677 17.6525 36.8067 17.9133C36.963 18.1568 37.1106 18.3133 37.2495 18.3828C37.4058 18.4524 37.5447 18.5393 37.6663 18.6437C37.7879 18.748 37.8487 18.8784 37.8487 19.0349C37.8487 19.6087 36.8674 19.8957 34.905 19.8957C34.1061 19.8957 33.507 19.8 33.1075 19.6087C32.7255 19.4175 32.4823 19.0958 32.3781 18.6437C31.7182 19.5479 30.6154 20 29.0698 20C27.611 20 26.4214 19.6609 25.5009 18.9827C24.5979 18.3046 24.1463 17.3221 24.1463 16.0353C24.1463 14.7833 24.5979 13.8095 25.5009 13.114C26.404 12.401 27.5155 12.0445 28.8353 12.0445C29.86 12.0445 30.737 12.2619 31.4664 12.6966V12.6184C31.2927 10.8969 31.093 9.73181 30.8672 9.12319C30.6588 8.51458 30.242 8.21027 29.6168 8.21027C29.2174 8.21027 28.8961 8.39286 28.653 8.75802C28.4099 9.12319 28.2275 9.52314 28.1059 9.95786C28.0017 10.3926 27.7933 10.7925 27.4807 11.1577C27.1681 11.5229 26.7513 11.7055 26.2303 11.7055C25.692 11.7055 25.2491 11.549 24.9018 11.236C24.5718 10.923 24.4068 10.5143 24.4068 10.01C24.4068 9.00147 24.9105 8.24505 25.9177 7.74077C26.925 7.2191 28.158 6.95827 29.6168 6.95827C31.3535 6.95827 32.7863 7.43646 33.9151 8.39286C35.0613 9.33186 35.7386 10.61 35.947 12.2271L36.5201 16.8961ZM30.5025 18.6697C30.902 18.6697 31.2233 18.4785 31.4664 18.0959C31.7269 17.7133 31.8571 17.2786 31.8571 16.7917L31.7529 15.5919C31.5793 14.1486 31.0409 13.427 30.1378 13.427C29.7384 13.427 29.4171 13.5922 29.174 13.9226C28.9309 14.2356 28.8093 14.6616 28.8093 15.2006C28.8093 16.1744 28.9569 17.0004 29.2521 17.6786C29.5647 18.3394 29.9815 18.6697 30.5025 18.6697Z" fill="white"/>
<path d="M52.3268 17.5482C52.4136 17.6699 52.6741 17.8959 53.1083 18.2263C53.5598 18.5567 53.7856 18.861 53.7856 19.1392V19.2436C53.7856 19.574 53.5859 19.7392 53.1864 19.7392H47.7159C47.3165 19.7392 47.1168 19.5653 47.1168 19.2175V19.1392C47.1168 18.9306 47.247 18.6784 47.5075 18.3828C47.768 18.0698 47.8201 17.7916 47.6638 17.5482L45.3714 14.1312L44.0689 15.3311V16.8961C44.0689 17.3308 44.2599 17.7655 44.642 18.2002C45.0414 18.6176 45.2412 18.9306 45.2412 19.1392V19.2436C45.2412 19.574 45.0328 19.7392 44.616 19.7392H38.9892C38.5724 19.7392 38.364 19.574 38.364 19.2436V19.1392C38.364 18.9306 38.5376 18.6176 38.885 18.2002C39.2323 17.7655 39.406 17.3308 39.406 16.8961V4.97592C39.406 4.52381 39.1976 4.08908 38.7808 3.67175C38.364 3.23702 38.1556 2.93272 38.1556 2.75883V2.65449C38.1556 2.46322 38.3466 2.26324 38.7287 2.05457L42.8967 0.124398C43.2614 -0.0147141 43.5479 -0.0234089 43.7563 0.0983145C43.9647 0.220037 44.0689 0.411316 44.0689 0.672151V13.0618L47.5857 10.0361C47.7941 9.897 47.8722 9.72311 47.8201 9.51444C47.7854 9.30578 47.6985 9.12319 47.5596 8.96669C47.438 8.7928 47.2991 8.60152 47.1428 8.39286C47.0039 8.18419 46.9344 8.0016 46.9344 7.8451V7.74077C46.9344 7.39299 47.1341 7.2191 47.5336 7.2191H51.6495C52.0489 7.2191 52.2486 7.3843 52.2486 7.71469V7.81902C52.2486 8.02769 52.127 8.24505 51.8839 8.47111C51.6408 8.67977 51.2934 8.93191 50.8419 9.22753C50.4077 9.50575 50.0604 9.76659 49.7999 10.01L48.1327 11.549L52.3268 17.5482Z" fill="white"/>
<path d="M63.9042 15.618C64.0952 15.4267 64.3036 15.3745 64.5294 15.4615C64.7725 15.531 64.8854 15.7049 64.868 15.9831C64.8333 16.8526 64.3297 17.7394 63.3571 18.6437C62.3846 19.5479 61.1255 20 59.5799 20C57.6869 20 56.1413 19.3914 54.943 18.1742C53.7447 16.9569 53.1455 15.3658 53.1455 13.4009C53.1455 11.5229 53.7707 9.98395 55.0211 8.78411C56.2889 7.56688 57.7998 6.95827 59.5538 6.95827C61.1342 6.95827 62.3585 7.32343 63.2269 8.05377C64.0952 8.78411 64.5294 9.61009 64.5294 10.5317C64.5294 11.262 64.1907 11.8011 63.5134 12.1489L58.3295 15.0702C59.0415 16.2005 60.0314 16.7656 61.2992 16.7656C61.8375 16.7656 62.3412 16.6613 62.8101 16.4526C63.2963 16.2266 63.661 15.9484 63.9042 15.618ZM59.0849 8.23636C58.5639 8.23636 58.1384 8.49719 57.8085 9.01886C57.4959 9.54053 57.3396 10.1926 57.3396 10.9751C57.3396 12.0185 57.4698 12.9314 57.7303 13.7139L60.153 12.2532C60.6045 11.9402 60.8303 11.4968 60.8303 10.923C60.8303 10.3491 60.6827 9.75789 60.3874 9.14928C60.1096 8.54066 59.6754 8.23636 59.0849 8.23636Z" fill="white"/>
<path d="M74.6956 6.95827C75.4424 6.95827 76.0328 7.20171 76.467 7.6886C76.9185 8.1755 77.1443 8.7928 77.1443 9.54053C77.1443 11.1751 76.4757 11.9924 75.1384 11.9924C74.6001 11.9924 74.192 11.8707 73.9141 11.6272C73.6362 11.3664 73.4712 11.0795 73.4191 10.7665C73.3844 10.4535 73.2976 10.1752 73.1586 9.93178C73.0197 9.67095 72.8113 9.54053 72.5334 9.54053C71.8909 9.54053 71.5696 10.3752 71.5696 12.0445V16.8961C71.5696 17.3308 71.7954 17.7655 72.2469 18.2002C72.7158 18.6176 72.9502 18.9306 72.9502 19.1392V19.2436C72.9502 19.574 72.7418 19.7392 72.325 19.7392H66.7243C66.3075 19.7392 66.0991 19.574 66.0991 19.2436V19.1392C66.0991 18.9306 66.2728 18.6176 66.6201 18.2002C66.9674 17.7655 67.1411 17.3308 67.1411 16.8961V11.7055C67.1411 11.3577 67.0369 11.0621 66.8285 10.8186C66.6201 10.5752 66.4117 10.3665 66.2033 10.1926C65.9949 10.0187 65.8907 9.82745 65.8907 9.61878V9.54053C65.8907 9.24492 66.0904 8.99278 66.4898 8.78411L70.1629 7.0626C70.5102 6.94088 70.7534 6.93218 70.8923 7.03652C71.0312 7.14085 71.1007 7.34082 71.1007 7.63644V9.54053C71.6912 7.81902 72.8895 6.95827 74.6956 6.95827Z" fill="white"/>
<path d="M83.3753 19.9739C81.7081 19.9739 80.3362 19.6957 79.2594 19.1392C78.1827 18.5654 77.6443 17.8264 77.6443 16.9221C77.6443 16.3657 77.8093 15.9484 78.1393 15.6701C78.4866 15.3919 78.9382 15.2528 79.4939 15.2528C80.0844 15.2528 80.5533 15.4441 80.9006 15.8266C81.2479 16.1918 81.4824 16.6005 81.6039 17.0526C81.7255 17.4873 81.9339 17.8959 82.2291 18.2785C82.5244 18.6437 82.9064 18.8262 83.3753 18.8262C84.3131 18.8262 84.782 18.348 84.782 17.3917C84.782 16.7656 84.5389 16.2701 84.0526 15.9049C83.5837 15.5397 83.0106 15.2615 82.3333 15.0702C81.656 14.8789 80.9787 14.6616 80.3014 14.4181C79.6415 14.1747 79.0684 13.766 78.5821 13.1922C78.1132 12.6184 77.8788 11.862 77.8788 10.923C77.8788 9.75789 78.3911 8.81019 79.4157 8.07985C80.4404 7.33213 81.7602 6.95827 83.3753 6.95827C84.9904 6.95827 86.3016 7.26257 87.3089 7.87119C88.3335 8.4798 88.8458 9.21883 88.8458 10.0883C88.8458 10.5404 88.6722 10.923 88.3248 11.236C87.9949 11.5316 87.5868 11.6794 87.1005 11.6794C86.5274 11.6794 86.0759 11.4968 85.7459 11.1316C85.4159 10.7665 85.1902 10.3665 85.0686 9.93178C84.9644 9.47967 84.7907 9.07103 84.5476 8.70586C84.3218 8.34069 84.0092 8.15811 83.6098 8.15811C83.2277 8.15811 82.9238 8.30591 82.698 8.60152C82.4896 8.89714 82.3854 9.24492 82.3854 9.64486C82.3854 10.2883 82.6112 10.8099 83.0627 11.2099C83.5316 11.6098 84.0874 11.9141 84.7299 12.1228C85.3899 12.3315 86.0411 12.5575 86.6837 12.801C87.3436 13.0444 87.8994 13.4444 88.3509 14.0008C88.8198 14.5399 89.0542 15.2528 89.0542 16.1396C89.0542 17.2525 88.5419 18.1742 87.5173 18.9045C86.51 19.6174 85.1294 19.9739 83.3753 19.9739Z" fill="white"/>
<path d="M112.379 16.8961C112.414 17.3308 112.579 17.7655 112.874 18.2002C113.169 18.635 113.317 18.9567 113.317 19.1653V19.2697C113.317 19.6001 113.108 19.7652 112.691 19.7652H107.481C107.065 19.7652 106.856 19.6001 106.856 19.2697V19.1653C106.856 18.974 107.021 18.661 107.351 18.2263C107.681 17.7916 107.829 17.3482 107.794 16.8961L107.533 12.2793C107.464 10.9751 107.29 10.0535 107.012 9.51444C106.735 8.958 106.309 8.67977 105.736 8.67977C105.215 8.67977 104.816 8.90583 104.538 9.35794C104.26 9.81006 104.121 10.41 104.121 11.1577C104.173 11.5229 104.199 11.888 104.199 12.2532V16.8961C104.199 17.3308 104.355 17.7655 104.668 18.2002C104.981 18.635 105.137 18.9567 105.137 19.1653V19.2697C105.137 19.6001 104.928 19.7652 104.512 19.7652H99.3277C98.9109 19.7652 98.7025 19.6001 98.7025 19.2697V19.1653C98.7025 18.9567 98.8501 18.635 99.1454 18.2002C99.458 17.7655 99.6143 17.3308 99.6143 16.8961V11.9402C99.6143 9.76659 99.0238 8.67977 97.8429 8.67977C97.2698 8.67977 96.8356 8.90583 96.5404 9.35794C96.2451 9.81006 96.0975 10.41 96.0975 11.1577V16.8961C96.0975 17.3308 96.2886 17.7655 96.6706 18.2002C97.0527 18.635 97.2437 18.9567 97.2437 19.1653V19.2697C97.2437 19.6001 97.0353 19.7652 96.6185 19.7652H90.9917C90.5749 19.7652 90.3665 19.6001 90.3665 19.2697V19.1653C90.3665 18.9567 90.5576 18.635 90.9396 18.2002C91.3217 17.7655 91.5127 17.3308 91.5127 16.8961V11.7576C91.5127 11.4098 91.3912 11.1142 91.148 10.8708C90.9223 10.61 90.6965 10.3839 90.4707 10.1926C90.2449 10.0013 90.1321 9.80136 90.1321 9.5927V9.51444C90.1321 9.28839 90.3405 9.07103 90.7573 8.86236L94.6648 7.0626C94.9774 6.92349 95.2205 6.92349 95.3942 7.0626C95.5678 7.20171 95.6547 7.41038 95.6547 7.6886V8.62761C96.4535 7.51471 97.6084 6.95827 99.1193 6.95827C101.047 6.95827 102.471 7.67121 103.392 9.09711C103.739 8.41894 104.251 7.89727 104.928 7.5321C105.606 7.14955 106.379 6.95827 107.247 6.95827C108.515 6.95827 109.591 7.3843 110.477 8.23636C111.38 9.08842 111.901 10.4882 112.04 12.4358L112.379 16.8961Z" fill="white"/>
<path d="M121.39 20C119.376 20 117.665 19.3827 116.258 18.1481C114.869 16.8961 114.174 15.3311 114.174 13.453C114.174 11.575 114.869 10.0274 116.258 8.81019C117.648 7.57557 119.297 6.95827 121.208 6.95827C123.188 6.95827 124.872 7.57557 126.261 8.81019C127.651 10.0448 128.345 11.6098 128.345 13.5052C128.345 15.3832 127.668 16.9395 126.314 18.1742C124.959 19.3914 123.318 20 121.39 20ZM121.937 18.7219C123.049 18.7219 123.604 17.6525 123.604 15.5136C123.604 14.7311 123.491 13.8008 123.266 12.7227C123.057 11.6446 122.693 10.6273 122.172 9.67095C121.668 8.71455 121.104 8.23636 120.478 8.23636C119.87 8.23636 119.436 8.50589 119.176 9.04494C118.915 9.584 118.785 10.4013 118.785 11.4968C118.785 12.0706 118.855 12.7488 118.993 13.5313C119.132 14.3138 119.323 15.105 119.567 15.9049C119.81 16.6874 120.14 17.3569 120.556 17.9133C120.991 18.4524 121.451 18.7219 121.937 18.7219Z" fill="white"/>
<path d="M142.775 16.8961C142.775 17.3308 142.949 17.7655 143.296 18.2002C143.643 18.6176 143.817 18.9306 143.817 19.1392V19.2436C143.817 19.574 143.617 19.7392 143.218 19.7392H139.493C139.041 19.7392 138.815 19.5218 138.815 19.0871V18.8523C137.999 19.6174 136.94 20 135.637 20C133.953 20 132.502 19.4262 131.287 18.2785C130.089 17.1134 129.489 15.5136 129.489 13.4791C129.489 11.5837 130.097 10.0274 131.313 8.81019C132.529 7.57557 133.979 6.95827 135.663 6.95827C136.723 6.95827 137.617 7.20171 138.346 7.6886V4.2195C138.346 3.87172 138.234 3.57611 138.008 3.33266C137.782 3.07183 137.548 2.85447 137.304 2.68058C137.079 2.4893 136.966 2.28933 136.966 2.08066V2.00241C136.966 1.67202 137.165 1.44596 137.565 1.32424L141.629 0.0983145C142.393 -0.145131 142.775 0.0635373 142.775 0.724318V16.8961ZM136.679 18.7219C137.148 18.7393 137.539 18.548 137.851 18.1481C138.181 17.7481 138.346 17.2091 138.346 16.5309V11.4968C138.346 10.6621 138.103 9.91439 137.617 9.25361C137.148 8.57544 136.61 8.23636 136.002 8.23636C134.717 8.23636 134.031 9.30578 133.944 11.4446C133.909 12.2619 133.979 13.2096 134.152 14.2877C134.343 15.3658 134.656 16.3744 135.09 17.3134C135.542 18.235 136.071 18.7045 136.679 18.7219Z" fill="white"/>
<path d="M152.045 20C150.03 20 148.319 19.3827 146.913 18.1481C145.523 16.8961 144.829 15.3311 144.829 13.453C144.829 11.575 145.523 10.0274 146.913 8.81019C148.302 7.57557 149.952 6.95827 151.862 6.95827C153.842 6.95827 155.527 7.57557 156.916 8.81019C158.305 10.0448 159 11.6098 159 13.5052C159 15.3832 158.323 16.9395 156.968 18.1742C155.613 19.3914 153.972 20 152.045 20ZM152.592 18.7219C153.703 18.7219 154.259 17.6525 154.259 15.5136C154.259 14.7311 154.146 13.8008 153.92 12.7227C153.712 11.6446 153.347 10.6273 152.826 9.67095C152.322 8.71455 151.758 8.23636 151.133 8.23636C150.525 8.23636 150.091 8.50589 149.83 9.04494C149.57 9.584 149.44 10.4013 149.44 11.4968C149.44 12.0706 149.509 12.7488 149.648 13.5313C149.787 14.3138 149.978 15.105 150.221 15.9049C150.464 16.6874 150.794 17.3569 151.211 17.9133C151.645 18.4524 152.105 18.7219 152.592 18.7219Z" fill="white"/>
</svg>
