<svg width="32" height="32" viewBox="0 0 32 32" fill="none" xmlns="http://www.w3.org/2000/svg">
<rect width="32" height="32" rx="8" fill="#050530" fill-opacity="0.04"/>
<path d="M22.6182 12.9514C22.6182 12.9514 23 13.7244 23 15.2705C23 16.8165 22.6182 17.5895 22.6182 17.5895" stroke="#9494AE" stroke-opacity="0.48" stroke-width="1.55893" stroke-linecap="round" stroke-linejoin="round"/>
<path d="M25.2364 11.4055C25.2364 11.4055 26 12.9515 26 15.2705C26 17.5895 25.2364 19.1355 25.2364 19.1355" stroke="#9494AE" stroke-opacity="0.48" stroke-width="1.55893" stroke-linecap="round" stroke-linejoin="round"/>
<path d="M7.91724 17.9174C7.91724 17.3094 8.41017 16.8164 9.01823 16.8164V16.8164C9.55728 16.8164 10.0171 17.2067 10.1046 17.7386L10.7469 21.6414C10.8641 22.3533 10.3148 23.0004 9.59326 23.0004H9.08643C8.4407 23.0004 7.91724 22.477 7.91724 21.8313V17.9174Z" fill="#D7D7E1"/>
<path d="M20.8931 15.2705C20.8931 13.7244 19.3658 12.9514 19.3658 12.9514V17.5895C19.3658 17.5895 20.8931 16.8165 20.8931 15.2705Z" fill="#9494AE"/>
<path d="M19.7563 11.3424C19.7563 9.64088 17.997 8.50904 16.4486 9.21437L11.105 11.6485C10.9021 11.7409 10.6818 11.7887 10.4588 11.7887H8.33839C7.04693 11.7887 6 12.8356 6 14.1271V16.2389C6 17.6095 7.17334 18.6862 8.53885 18.5687L10.367 18.4114C10.6537 18.3867 10.9417 18.4419 11.199 18.5708L16.3704 21.1621C17.9253 21.9412 19.7563 20.8106 19.7563 19.0714V11.3424Z" fill="#9494AE"/>
</svg>
