<svg width="32" height="32" viewBox="0 0 32 32" fill="none" xmlns="http://www.w3.org/2000/svg">
<rect width="32" height="32" rx="8" fill="#050530" fill-opacity="0.04"/>
<path d="M17.4191 10.0391C18.0995 10.2132 18.5131 10.919 18.343 11.6155L15.8034 22.015C15.6333 22.7115 14.9438 23.135 14.2634 22.9609C13.5831 22.7868 13.1694 22.081 13.3395 21.3845L15.8792 10.985C16.0493 10.2885 16.7387 9.865 17.4191 10.0391Z" fill="#9494AE"/>
<path d="M11.5238 10.2603C12.0849 10.6911 12.1986 11.5059 11.7778 12.0802L9.40565 15.318C8.89012 16.0217 8.89012 16.9783 9.40565 17.682L11.7778 20.9198C12.1986 21.4941 12.0849 22.3089 11.5238 22.7397C10.9628 23.1705 10.1668 23.0541 9.74603 22.4797L6.50794 18.0599C5.83069 17.1355 5.83069 15.8645 6.50794 14.9401L9.74603 10.5203C10.1668 9.94593 10.9628 9.82953 11.5238 10.2603Z" fill="#9494AE"/>
<path d="M20.2222 12.0802C19.8014 11.5059 19.9151 10.6911 20.4762 10.2603C21.0372 9.82953 21.8332 9.94593 22.254 10.5203L25.4921 14.9401C26.1693 15.8645 26.1693 17.1355 25.4921 18.0599L22.254 22.4797C21.8332 23.0541 21.0372 23.1705 20.4762 22.7397C19.9151 22.3089 19.8014 21.4941 20.2222 20.9198L22.5943 17.682C23.1099 16.9783 23.1099 16.0217 22.5943 15.318L20.2222 12.0802Z" fill="#9494AE"/>
</svg>
