<svg width="32" height="32" viewBox="0 0 32 32" fill="none" xmlns="http://www.w3.org/2000/svg">
<rect width="32" height="32" rx="8" fill="#5E09E9" fill-opacity="0.08"/>
<path d="M11.5238 10.2603C12.0849 10.6911 12.1986 11.5059 11.7778 12.0802L9.83864 14.727C9.06533 15.7825 9.06533 17.2175 9.83864 18.273L11.7778 20.9198C12.1986 21.4942 12.0849 22.309 11.5238 22.7397C10.9628 23.1705 10.1668 23.0541 9.74603 22.4797L6.50794 18.0599C5.83069 17.1355 5.83069 15.8645 6.50794 14.9401L9.74603 10.5203C10.1668 9.94595 10.9628 9.82955 11.5238 10.2603Z" fill="url(#paint0_linear)"/>
<path d="M20.2222 12.0802C19.8014 11.5059 19.9151 10.6911 20.4762 10.2603C21.0372 9.82955 21.8332 9.94595 22.254 10.5203L25.4921 14.9401C26.1693 15.8645 26.1693 17.1355 25.4921 18.0599L22.254 22.4797C21.8332 23.0541 21.0372 23.1705 20.4762 22.7397C19.9151 22.309 19.8014 21.4942 20.2222 20.9198L22.1614 18.273C22.9347 17.2175 22.9347 15.7825 22.1614 14.727L20.2222 12.0802Z" fill="url(#paint1_linear)"/>
<path d="M17.3501 11L14.6001 22" stroke="#C7A4FF" stroke-width="2.8" stroke-linecap="round"/>
<defs>
<linearGradient id="paint0_linear" x1="6" y1="10.7093" x2="26.4288" y2="11.4689" gradientUnits="userSpaceOnUse">
<stop stop-color="#8F4AFF"/>
<stop offset="1" stop-color="#5E09E9"/>
</linearGradient>
<linearGradient id="paint1_linear" x1="6" y1="10.7093" x2="26.4288" y2="11.4689" gradientUnits="userSpaceOnUse">
<stop stop-color="#8F4AFF"/>
<stop offset="1" stop-color="#5E09E9"/>
</linearGradient>
</defs>
</svg>
