<svg width="16" height="16" viewBox="0 0 16 16" fill="none" xmlns="http://www.w3.org/2000/svg">
<path d="M14.3718 4.22651C14.7058 3.97594 15.0219 3.69865 15.3107 3.39463C15.5315 3.16228 15.2687 2.81497 14.9576 2.89191C14.6837 2.95964 14.4025 3.00935 14.1213 3.03614C14.5669 2.77276 14.9338 2.41765 15.2052 1.98777C15.3628 1.73815 15.0774 1.48936 14.8069 1.60769C14.3844 1.79256 13.9398 1.93703 13.4951 2.03374C12.8689 1.3759 12.0235 1 11.0841 1C9.2681 1 7.79648 2.47229 7.79648 4.28916C7.79648 4.53976 7.82779 4.79036 7.89041 5.04096C5.38061 4.89666 3.11003 3.76848 1.49495 2.04842C1.29327 1.83363 0.937824 1.86324 0.84044 2.14132C0.72121 2.48179 0.657534 2.85587 0.657534 3.25542C0.657534 4.38313 1.22114 5.38554 2.12916 5.98072C1.59687 5.9494 1.06458 5.8241 0.626223 5.57349V5.60482C0.626223 7.20241 1.75342 8.51807 3.25636 8.83133C3.00587 8.89398 2.69276 8.95663 2.41096 8.95663C2.36844 8.95663 2.32711 8.95545 2.28649 8.95332C2.05195 8.94103 1.86774 9.15245 1.97161 9.3631C2.49666 10.4278 3.59074 11.1533 4.85323 11.1807C3.72603 12.0578 2.31703 12.5904 0.782779 12.5904V12.5904C0.59039 12.5904 0.506413 12.8371 0.676136 12.9277C1.96765 13.6171 3.44809 14 5.0411 14C11.0841 14 14.3718 9.01928 14.3718 4.66506C14.3718 4.50843 14.3718 4.38313 14.3718 4.22651Z" fill="#8337FF"/>
</svg>
